<svg width="27" height="26" viewBox="0 0 27 26" fill="none" xmlns="http://www.w3.org/2000/svg">
<path d="M12.5554 0.717387C12.8667 -0.178173 14.1333 -0.178173 14.4446 0.717387L17.0334 8.16501C17.1707 8.56008 17.5394 8.82795 17.9575 8.83647L25.8406 8.99711C26.7886 9.01643 27.1799 10.221 26.4244 10.7938L20.1413 15.5573C19.808 15.81 19.6671 16.2434 19.7883 16.6438L22.0715 24.1907C22.346 25.0982 21.3214 25.8426 20.5432 25.3011L14.0712 20.7975C13.7279 20.5586 13.2721 20.5586 12.9288 20.7975L6.45684 25.3011C5.6786 25.8426 4.65396 25.0982 4.92851 24.1907L7.21173 16.6438C7.33285 16.2434 7.19202 15.81 6.85873 15.5573L0.575598 10.7938C-0.179934 10.221 0.211446 9.01643 1.15937 8.99711L9.04246 8.83647C9.46063 8.82795 9.82932 8.56008 9.96665 8.16501L12.5554 0.717387Z" fill="url(#paint0_linear_1053_8)"/>
<defs>
<linearGradient id="paint0_linear_1053_8" x1="-2.5" y1="-5.72093" x2="26.1512" y2="43.0233" gradientUnits="userSpaceOnUse">
<stop stop-color="#FFC700"/>
<stop offset="1" stop-color="#FF782D"/>
</linearGradient>
</defs>
</svg>
