<svg width="20" height="20" viewBox="0 0 20 20" fill="none" xmlns="http://www.w3.org/2000/svg">
<path d="M14.6303 12.5C14.0239 12.5005 13.442 12.7579 13.0095 13.2167L6.91218 10.2833C6.91218 10.1833 6.91218 10.1 6.91218 10C6.91218 9.9 6.91218 9.81667 6.91218 9.725L13.0095 6.78333C13.3914 7.18752 13.8911 7.4365 14.4237 7.48801C14.9564 7.53952 15.4891 7.39037 15.9314 7.06589C16.3738 6.74141 16.6985 6.26162 16.8503 5.70799C17.0022 5.15437 16.9719 4.56104 16.7646 4.0288C16.5573 3.49655 16.1857 3.05819 15.713 2.78818C15.2404 2.51816 14.6957 2.43314 14.1715 2.54754C13.6473 2.66195 13.176 2.96873 12.8375 3.41578C12.4991 3.86284 12.3144 4.4226 12.3148 5V5.28333L6.21755 8.21667C5.89213 7.87146 5.47951 7.63775 5.03149 7.54486C4.58347 7.45197 4.12002 7.50405 3.69932 7.69456C3.27862 7.88507 2.91941 8.20551 2.6668 8.61568C2.41418 9.02584 2.27942 9.50743 2.27942 10C2.27942 10.4926 2.41418 10.9742 2.6668 11.3843C2.91941 11.7945 3.27862 12.1149 3.69932 12.3054C4.12002 12.496 4.58347 12.548 5.03149 12.4551C5.47951 12.3623 5.89213 12.1285 6.21755 11.7833L12.3148 14.725V15C12.3148 15.4945 12.4506 15.9778 12.7051 16.3889C12.9595 16.8 13.3211 17.1205 13.7442 17.3097C14.1673 17.4989 14.6328 17.5484 15.082 17.452C15.5311 17.3555 15.9437 17.1174 16.2675 16.7678C16.5913 16.4181 16.8119 15.9727 16.9012 15.4877C16.9905 15.0028 16.9447 14.5001 16.7694 14.0433C16.5942 13.5865 16.2974 13.196 15.9166 12.9213C15.5359 12.6466 15.0882 12.5 14.6303 12.5Z" fill="#231F20"/>
</svg>
