<svg width="30" height="30" viewBox="0 0 30 30" fill="none" xmlns="http://www.w3.org/2000/svg">
<path d="M26.9854 6.66702H26.3362C26.5357 6.13361 26.6427 5.57 26.6525 5.00051C26.6176 3.64496 26.0483 2.35831 25.0689 1.42158C24.0896 0.484846 22.7797 -0.0258575 21.4255 0.00100878C20.0947 0.0297816 18.7961 0.416224 17.6656 1.11987C16.5352 1.82352 15.6145 2.8185 15 4.00061C14.3855 2.8185 13.4648 1.82352 12.3344 1.11987C11.2039 0.416224 9.9053 0.0297816 8.57448 0.00100878C7.22026 -0.0258575 5.91043 0.484846 4.93108 1.42158C3.95172 2.35831 3.38242 3.64496 3.34751 5.00051C3.35734 5.57 3.46431 6.13361 3.66379 6.66702H3.01458C2.57654 6.70866 2.15109 6.83681 1.76283 7.04407C1.37456 7.25133 1.03119 7.53358 0.752561 7.87451C0.47393 8.21544 0.265569 8.60828 0.139524 9.03032C0.0134783 9.45236 -0.0277505 9.89523 0.0182206 10.3333V16.3327C-0.059544 17.1397 0.147697 17.9485 0.6039 18.6183C1.0601 19.2881 1.73641 19.7767 2.51518 19.999V27.2816C2.56657 28.0375 2.90978 28.7437 3.47215 29.2507C4.03451 29.7578 4.7719 30.0258 5.52819 29.998H24.4718C25.239 30.0252 25.9859 29.748 26.5501 29.2269C27.1143 28.7058 27.4502 27.9827 27.4848 27.215V19.999C28.2636 19.7767 28.9399 19.2881 29.3961 18.6183C29.8523 17.9485 30.0595 17.1397 29.9818 16.3327V10.3333C30.0278 9.89523 29.9865 9.45236 29.8605 9.03032C29.7344 8.60828 29.5261 8.21544 29.2474 7.87451C28.9688 7.53358 28.6254 7.25133 28.2372 7.04407C27.8489 6.83681 27.4235 6.70866 26.9854 6.66702ZM26.6525 10.3333V16.3327C26.6725 16.4429 26.6725 16.5558 26.6525 16.666H16.6646V10H26.6525C26.6725 10.1102 26.6725 10.2231 26.6525 10.3333ZM21.4255 3.33401C21.8971 3.3065 22.3605 3.4659 22.7157 3.77775C23.0708 4.0896 23.289 4.52885 23.3232 5.00051C23.289 5.47218 23.0708 5.91142 22.7157 6.22328C22.3605 6.53513 21.8971 6.69453 21.4255 6.66702H17.3305C17.6218 5.77672 18.1627 4.98911 18.8888 4.39813C19.6149 3.80715 20.4955 3.43775 21.4255 3.33401ZM6.67679 5.00051C6.71098 4.52885 6.92923 4.0896 7.28434 3.77775C7.63946 3.4659 8.1029 3.3065 8.57448 3.33401C9.50154 3.44077 10.3786 3.81154 11.1014 4.40232C11.8243 4.9931 12.3628 5.77908 12.6529 6.66702H8.57448C8.1029 6.69453 7.63946 6.53513 7.28434 6.22328C6.92923 5.91142 6.71098 5.47218 6.67679 5.00051ZM3.34751 10.3333C3.32753 10.2231 3.32753 10.1102 3.34751 10H13.3354V16.666H3.34751C3.32753 16.5558 3.32753 16.4429 3.34751 16.3327V10.3333ZM5.84447 19.999H13.3354V26.665H5.84447V19.999ZM16.6646 26.665V19.999H24.1555V26.665H16.6646Z" fill="#231F20"/>
</svg>
