<svg width="30" height="29" viewBox="0 0 30 29" fill="none" xmlns="http://www.w3.org/2000/svg">
<path d="M25 2.8194H23.3333V1.4097C23.3333 1.03582 23.1577 0.677261 22.8452 0.412891C22.5326 0.148521 22.1087 0 21.6667 0C21.2246 0 20.8007 0.148521 20.4882 0.412891C20.1756 0.677261 20 1.03582 20 1.4097V2.8194H10V1.4097C10 1.03582 9.8244 0.677261 9.51184 0.412891C9.19928 0.148521 8.77536 0 8.33333 0C7.89131 0 7.46738 0.148521 7.15482 0.412891C6.84226 0.677261 6.66667 1.03582 6.66667 1.4097V2.8194H5C3.67392 2.8194 2.40215 3.26496 1.46447 4.05807C0.526784 4.85118 0 5.92687 0 7.04849V23.9649C0 25.0865 0.526784 26.1622 1.46447 26.9553C2.40215 27.7484 3.67392 28.194 5 28.194H25C26.3261 28.194 27.5979 27.7484 28.5355 26.9553C29.4732 26.1622 30 25.0865 30 23.9649V7.04849C30 5.92687 29.4732 4.85118 28.5355 4.05807C27.5979 3.26496 26.3261 2.8194 25 2.8194ZM5 5.6388H6.66667V7.04849C6.66667 7.42237 6.84226 7.78093 7.15482 8.0453C7.46738 8.30967 7.89131 8.45819 8.33333 8.45819C8.77536 8.45819 9.19928 8.30967 9.51184 8.0453C9.8244 7.78093 10 7.42237 10 7.04849V5.6388H20V7.04849C20 7.42237 20.1756 7.78093 20.4882 8.0453C20.8007 8.30967 21.2246 8.45819 21.6667 8.45819C22.1087 8.45819 22.5326 8.30967 22.8452 8.0453C23.1577 7.78093 23.3333 7.42237 23.3333 7.04849V5.6388H25C25.442 5.6388 25.866 5.78732 26.1785 6.05169C26.4911 6.31606 26.6667 6.67462 26.6667 7.04849V12.6873H3.33333V7.04849C3.33333 6.67462 3.50893 6.31606 3.82149 6.05169C4.13405 5.78732 4.55797 5.6388 5 5.6388ZM25 25.3746H5C4.55797 25.3746 4.13405 25.2261 3.82149 24.9617C3.50893 24.6973 3.33333 24.3388 3.33333 23.9649V15.5067H26.6667V23.9649C26.6667 24.3388 26.4911 24.6973 26.1785 24.9617C25.866 25.2261 25.442 25.3746 25 25.3746Z" fill="#231F20"/>
<path d="M8.33329 21.1455C9.25377 21.1455 9.99996 20.5143 9.99996 19.7358C9.99996 18.9572 9.25377 18.3261 8.33329 18.3261C7.41282 18.3261 6.66663 18.9572 6.66663 19.7358C6.66663 20.5143 7.41282 21.1455 8.33329 21.1455Z" fill="#231F20"/>
<path d="M21.6667 18.3261H15C14.558 18.3261 14.1341 18.4746 13.8215 18.739C13.509 19.0033 13.3334 19.3619 13.3334 19.7358C13.3334 20.1097 13.509 20.4682 13.8215 20.7326C14.1341 20.997 14.558 21.1455 15 21.1455H21.6667C22.1087 21.1455 22.5327 20.997 22.8452 20.7326C23.1578 20.4682 23.3334 20.1097 23.3334 19.7358C23.3334 19.3619 23.1578 19.0033 22.8452 18.739C22.5327 18.4746 22.1087 18.3261 21.6667 18.3261Z" fill="#231F20"/>
</svg>
