<svg width="26" height="21" viewBox="0 0 26 21" fill="none" xmlns="http://www.w3.org/2000/svg">
<path d="M9.31733 20.1923C9.09935 20.1916 8.88385 20.1436 8.68421 20.0513C8.48458 19.959 8.30507 19.8244 8.15685 19.6558L0.430908 10.988C0.142102 10.6634 -0.0126106 10.2311 0.000805048 9.78617C0.0142207 9.34127 0.194666 8.92021 0.502444 8.61563C0.810223 8.31104 1.22012 8.14787 1.64197 8.16202C2.06382 8.17617 2.46306 8.36648 2.75187 8.69107L9.30143 16.0512L22.6708 0.626794C22.8065 0.448612 22.9753 0.301564 23.1668 0.194681C23.3583 0.0877981 23.5685 0.0233366 23.7845 0.00525592C24.0005 -0.0128247 24.2178 0.0158574 24.4229 0.0895402C24.628 0.163223 24.8166 0.280351 24.9773 0.43373C25.1379 0.587109 25.2671 0.773502 25.3569 0.981458C25.4468 1.18942 25.4953 1.41455 25.4997 1.64302C25.504 1.8715 25.464 2.0985 25.3821 2.31008C25.3003 2.52166 25.1782 2.71336 25.0236 2.87339L10.4937 19.639C10.3469 19.8106 10.168 19.9484 9.96829 20.0436C9.76859 20.1388 9.55237 20.1894 9.33322 20.1923H9.31733Z" fill="#231F20"/>
</svg>
