<svg width="18" height="31" viewBox="0 0 18 31" fill="none" xmlns="http://www.w3.org/2000/svg">
<path d="M14.5914 30.8032C14.1875 30.8017 13.788 30.7185 13.417 30.5588C13.046 30.3991 12.7111 30.166 12.4323 29.8736L0.85721 17.8787C0.307761 17.3181 0 16.5645 0 15.7796C0 14.9946 0.307761 14.241 0.85721 13.6804L12.8522 1.68549C13.1318 1.40589 13.4637 1.18411 13.829 1.03279C14.1943 0.881472 14.5858 0.803589 14.9813 0.803589C15.3767 0.803589 15.7682 0.881472 16.1335 1.03279C16.4988 1.18411 16.8308 1.40589 17.1104 1.68549C17.39 1.96509 17.6118 2.29702 17.7631 2.66233C17.9144 3.02765 17.9923 3.41918 17.9923 3.81459C17.9923 4.21001 17.9144 4.60155 17.7631 4.96686C17.6118 5.33217 17.39 5.6641 17.1104 5.9437L7.21453 15.8095L16.7505 25.7054C17.309 26.2672 17.6225 27.0273 17.6225 27.8195C17.6225 28.6117 17.309 29.3717 16.7505 29.9336C16.4668 30.2151 16.1296 30.4371 15.7588 30.5864C15.388 30.7358 14.9911 30.8095 14.5914 30.8032Z" fill="#231F20"/>
</svg>
