<svg width="18" height="31" viewBox="0 0 18 31" fill="none" xmlns="http://www.w3.org/2000/svg">
<path d="M3.01263 30.8035C2.61843 30.8058 2.22767 30.7303 1.86273 30.5812C1.49779 30.4321 1.16587 30.2125 0.885994 29.9349C0.605252 29.6565 0.382423 29.3252 0.230357 28.9602C0.0782916 28.5952 0 28.2037 0 27.8083C0 27.4129 0.0782916 27.0214 0.230357 26.6564C0.382423 26.2914 0.605252 25.9601 0.885994 25.6816L10.8003 15.8272L1.27538 5.9129C0.717508 5.3517 0.404378 4.59255 0.404378 3.80124C0.404378 3.00994 0.717508 2.25078 1.27538 1.68958C1.55383 1.40884 1.88511 1.18601 2.25011 1.03394C2.61511 0.881879 3.0066 0.803589 3.40202 0.803589C3.79743 0.803589 4.18892 0.881879 4.55392 1.03394C4.91892 1.18601 5.2502 1.40884 5.52865 1.68958L17.0904 13.6706C17.6392 14.2305 17.9466 14.9833 17.9466 15.7673C17.9466 16.5513 17.6392 17.3041 17.0904 17.864L5.10931 29.8451C4.84047 30.1354 4.51676 30.3696 4.15688 30.5341C3.79701 30.6986 3.4081 30.7902 3.01263 30.8035Z" fill="#231F20"/>
</svg>
