<svg width="26" height="21" viewBox="0 0 26 21" fill="none" xmlns="http://www.w3.org/2000/svg">
<path d="M21.675 0H3.825C2.81055 0 1.83764 0.455871 1.12032 1.26733C0.40299 2.07878 0 3.17935 0 4.32692V15.8654C0 17.013 0.40299 18.1135 1.12032 18.925C1.83764 19.7364 2.81055 20.1923 3.825 20.1923H21.675C22.6895 20.1923 23.6624 19.7364 24.3797 18.925C25.097 18.1135 25.5 17.013 25.5 15.8654V4.32692C25.5 3.17935 25.097 2.07878 24.3797 1.26733C23.6624 0.455871 22.6895 0 21.675 0ZM11.475 14.4231H6.375C6.03685 14.4231 5.71255 14.2711 5.47344 14.0006C5.23433 13.7301 5.1 13.3633 5.1 12.9808C5.1 12.5982 5.23433 12.2314 5.47344 11.9609C5.71255 11.6904 6.03685 11.5385 6.375 11.5385H11.475C11.8132 11.5385 12.1375 11.6904 12.3766 11.9609C12.6157 12.2314 12.75 12.5982 12.75 12.9808C12.75 13.3633 12.6157 13.7301 12.3766 14.0006C12.1375 14.2711 11.8132 14.4231 11.475 14.4231ZM19.125 14.4231H16.575C16.2368 14.4231 15.9125 14.2711 15.6734 14.0006C15.4343 13.7301 15.3 13.3633 15.3 12.9808C15.3 12.5982 15.4343 12.2314 15.6734 11.9609C15.9125 11.6904 16.2368 11.5385 16.575 11.5385H19.125C19.4632 11.5385 19.7875 11.6904 20.0266 11.9609C20.2657 12.2314 20.4 12.5982 20.4 12.9808C20.4 13.3633 20.2657 13.7301 20.0266 14.0006C19.7875 14.2711 19.4632 14.4231 19.125 14.4231ZM22.95 5.76923H2.55V4.32692C2.55 3.9444 2.68433 3.57754 2.92344 3.30706C3.16255 3.03657 3.48685 2.88462 3.825 2.88462H21.675C22.0132 2.88462 22.3375 3.03657 22.5766 3.30706C22.8157 3.57754 22.95 3.9444 22.95 4.32692V5.76923Z" fill="#231F20"/>
</svg>
