<svg width="30" height="31" viewBox="0 0 30 31" fill="none" xmlns="http://www.w3.org/2000/svg">
<path d="M0.407797 7.19785L14.5789 14.8988C14.7018 14.9643 14.8389 14.9986 14.9781 14.9986C15.1173 14.9986 15.2544 14.9643 15.3773 14.8988L29.5484 7.19785C29.6777 7.134 29.7853 7.03337 29.8576 6.90861C29.9299 6.78384 29.9637 6.64049 29.9548 6.49657C29.9459 6.35264 29.8947 6.21454 29.8076 6.09961C29.7205 5.98469 29.6014 5.89806 29.4653 5.85059L15.2941 0.0623842C15.0917 -0.0207947 14.8646 -0.0207947 14.6621 0.0623842L0.490961 5.85059C0.354793 5.89806 0.235682 5.98469 0.148582 6.09961C0.0614821 6.21454 0.0102751 6.35264 0.00139065 6.49657C-0.00749383 6.64049 0.0263399 6.78384 0.0986441 6.90861C0.170948 7.03337 0.2785 7.134 0.407797 7.19785Z" fill="#231F20"/>
<path d="M29.4652 12.8031L26.4214 11.5057L15.3772 17.5101C15.2544 17.5757 15.1173 17.6099 14.978 17.6099C14.8388 17.6099 14.7017 17.5757 14.5789 17.5101L3.53469 11.5057L0.490889 12.8031C0.361983 12.8707 0.254034 12.9724 0.178721 13.097C0.103408 13.2216 0.0635986 13.3644 0.0635986 13.51C0.0635986 13.6555 0.103408 13.7984 0.178721 13.923C0.254034 14.0476 0.361983 14.1492 0.490889 14.2168L14.662 22.3669C14.7822 22.4404 14.9203 22.4793 15.0612 22.4793C15.2021 22.4793 15.3402 22.4404 15.4604 22.3669L29.6315 14.2168C29.7542 14.1352 29.8519 14.0212 29.9138 13.8874C29.9757 13.7536 29.9993 13.6053 29.9821 13.4589C29.9649 13.3125 29.9075 13.1738 29.8162 13.058C29.725 12.9423 29.6035 12.854 29.4652 12.8031Z" fill="#231F20"/>
<path d="M29.4653 20.1881L26.8706 19.057L15.3773 25.311C15.2545 25.3765 15.1174 25.4108 14.9781 25.4108C14.8389 25.4108 14.7018 25.3765 14.579 25.311L3.08571 19.057L0.490993 20.1881C0.358433 20.2568 0.247303 20.3606 0.169736 20.4882C0.0921698 20.6158 0.0511475 20.7623 0.0511475 20.9116C0.0511475 21.0609 0.0921698 21.2074 0.169736 21.335C0.247303 21.4626 0.358433 21.5664 0.490993 21.6351L14.6621 29.9515C14.785 30.017 14.9221 30.0513 15.0613 30.0513C15.2005 30.0513 15.3376 30.017 15.4605 29.9515L29.6316 21.6351C29.758 21.5523 29.8589 21.436 29.923 21.2992C29.9871 21.1624 30.012 21.0104 29.9947 20.8603C29.9774 20.7102 29.9188 20.5678 29.8253 20.4491C29.7318 20.3304 29.6072 20.24 29.4653 20.1881Z" fill="#231F20"/>
</svg>
