<svg width="30" height="30" viewBox="0 0 30 30" fill="none" xmlns="http://www.w3.org/2000/svg">
<path d="M10.84 17.9125C10.84 19.525 12.0775 20.825 13.615 20.825H16.7525C18.09 20.825 19.1775 19.6875 19.1775 18.2875C19.1775 16.7625 18.515 16.225 17.5275 15.875L12.49 14.125C11.5025 13.775 10.84 13.2375 10.84 11.7125C10.84 10.3125 11.9275 9.175 13.265 9.175H16.4025C17.94 9.175 19.1775 10.475 19.1775 12.0875M15 7.5V22.5" stroke="black" stroke-width="1.5" stroke-linecap="round" stroke-linejoin="round"/>
<path d="M15 27.5C21.9037 27.5 27.5 21.9037 27.5 15C27.5 8.09625 21.9037 2.5 15 2.5C8.09625 2.5 2.5 8.09625 2.5 15C2.5 21.9037 8.09625 27.5 15 27.5Z" stroke="black" stroke-width="1.5" stroke-linecap="round" stroke-linejoin="round"/>
</svg>
