<svg width="10" height="11" viewBox="0 0 10 11" fill="none" xmlns="http://www.w3.org/2000/svg">
<path d="M5 10.5C4.7873 10.4986 4.5775 10.434 4.38584 10.311C4.19417 10.188 4.02544 10.0097 3.89188 9.78889L0.384232 4.12222C0.179267 3.78108 0.0502851 3.37 0.0119851 2.93585C-0.0263148 2.5017 0.0276073 2.06194 0.167607 1.66667C0.281151 1.32314 0.466443 1.03046 0.701353 0.823581C0.936262 0.616702 1.21086 0.50437 1.49235 0.5H8.50765C8.78914 0.50437 9.06374 0.616702 9.29865 0.823581C9.53356 1.03046 9.71885 1.32314 9.83239 1.66667C9.97239 2.06194 10.0263 2.5017 9.98802 2.93585C9.94972 3.37 9.82073 3.78108 9.61577 4.12222L6.10812 9.78889C5.97456 10.0097 5.80583 10.188 5.61416 10.311C5.4225 10.434 5.2127 10.4986 5 10.5Z" fill="#231F20"/>
</svg>
