<svg width="30" height="24" viewBox="0 0 30 24" fill="none" xmlns="http://www.w3.org/2000/svg">
<path d="M19.475 12C19.475 13.98 17.475 15.58 15 15.58C12.525 15.58 10.525 13.98 10.525 12C10.525 10.02 12.525 8.42004 15 8.42004C17.475 8.42004 19.475 10.02 19.475 12Z" stroke="black" stroke-width="1.5" stroke-linecap="round" stroke-linejoin="round"/>
<path d="M15 20.27C19.4125 20.27 23.525 18.19 26.3875 14.59C27.5125 13.18 27.5125 10.81 26.3875 9.39997C23.525 5.79997 19.4125 3.71997 15 3.71997C10.5875 3.71997 6.47499 5.79997 3.61249 9.39997C2.48749 10.81 2.48749 13.18 3.61249 14.59C6.47499 18.19 10.5875 20.27 15 20.27Z" stroke="black" stroke-width="1.5" stroke-linecap="round" stroke-linejoin="round"/>
</svg>
