<svg width="30" height="34" viewBox="0 0 30 34" fill="none" xmlns="http://www.w3.org/2000/svg">
<path d="M28.4167 14.0548H1.58333C0.708883 14.0548 0 15.243 0 16.7088V16.9881C0 18.4539 0.708883 19.6421 1.58333 19.6421H28.4167C29.2911 19.6421 30 18.4539 30 16.9881V16.7088C30 15.243 29.2911 14.0548 28.4167 14.0548Z" fill="#231F20"/>
<path d="M28.4167 28.0229H1.58333C0.708883 28.0229 0 29.2112 0 30.6769V30.9563C0 32.422 0.708883 33.6102 1.58333 33.6102H28.4167C29.2911 33.6102 30 32.422 30 30.9563V30.6769C30 29.2112 29.2911 28.0229 28.4167 28.0229Z" fill="#231F20"/>
<path d="M28.4167 0.0866699H1.58333C0.708883 0.0866699 0 1.27488 0 2.74061V3.01998C0 4.48571 0.708883 5.67392 1.58333 5.67392H28.4167C29.2911 5.67392 30 4.48571 30 3.01998V2.74061C30 1.27488 29.2911 0.0866699 28.4167 0.0866699Z" fill="#231F20"/>
</svg>
