<svg width="15" height="15" viewBox="0 0 15 15" fill="none" xmlns="http://www.w3.org/2000/svg">
<path d="M7.5 6.875C7.91421 6.875 8.25 6.53921 8.25 6.125C8.25 5.71079 7.91421 5.375 7.5 5.375C7.08579 5.375 6.75 5.71079 6.75 6.125C6.75 6.53921 7.08579 6.875 7.5 6.875Z" fill="#231F20"/>
<path d="M10.5 6.875C10.9142 6.875 11.25 6.53921 11.25 6.125C11.25 5.71079 10.9142 5.375 10.5 5.375C10.0858 5.375 9.75 5.71079 9.75 6.125C9.75 6.53921 10.0858 6.875 10.5 6.875Z" fill="#231F20"/>
<path d="M4.5 6.875C4.91421 6.875 5.25 6.53921 5.25 6.125C5.25 5.71079 4.91421 5.375 4.5 5.375C4.08579 5.375 3.75 5.71079 3.75 6.125C3.75 6.53921 4.08579 6.875 4.5 6.875Z" fill="#231F20"/>
<path d="M12.75 0.125H2.25C1.65326 0.125 1.08097 0.362053 0.65901 0.78401C0.237053 1.20597 0 1.77826 0 2.375V13.625C0.000229018 13.7579 0.0357666 13.8883 0.102975 14.003C0.170184 14.1176 0.26665 14.2124 0.3825 14.2775C0.494592 14.341 0.621159 14.3746 0.75 14.375C0.884613 14.375 1.01673 14.3387 1.1325 14.27L4.5 12.23C4.62447 12.1559 4.76775 12.1194 4.9125 12.125H12.75C13.3467 12.125 13.919 11.8879 14.341 11.466C14.7629 11.044 15 10.4717 15 9.875V2.375C15 1.77826 14.7629 1.20597 14.341 0.78401C13.919 0.362053 13.3467 0.125 12.75 0.125ZM13.5 9.875C13.5 10.0739 13.421 10.2647 13.2803 10.4053C13.1397 10.546 12.9489 10.625 12.75 10.625H4.9125C4.50287 10.6247 4.10092 10.7362 3.75 10.9475L1.5 12.2975V2.375C1.5 2.17609 1.57902 1.98532 1.71967 1.84467C1.86032 1.70402 2.05109 1.625 2.25 1.625H12.75C12.9489 1.625 13.1397 1.70402 13.2803 1.84467C13.421 1.98532 13.5 2.17609 13.5 2.375V9.875Z" fill="#231F20"/>
</svg>
