<svg width="17" height="22" viewBox="0 0 17 22" fill="none" xmlns="http://www.w3.org/2000/svg">
<path d="M1 11.9323V10.0677C1 8.96586 1.63718 8.05474 2.42429 8.05474C3.78111 8.05474 4.33583 6.69865 3.65367 5.03532C3.26387 4.08182 3.49625 2.84227 4.17841 2.29136L5.47526 1.24251C6.06747 0.744569 6.83208 1.04121 7.18441 1.87818L7.26687 2.07947C7.94153 3.7428 9.05097 3.7428 9.73313 2.07947L9.81559 1.87818C10.1679 1.04121 10.9325 0.744569 11.5247 1.24251L12.8216 2.29136C13.5037 2.84227 13.7361 4.08182 13.3463 5.03532C12.6642 6.69865 13.2189 8.05474 14.5757 8.05474C15.3553 8.05474 16 8.95527 16 10.0677V11.9323C16 13.0341 15.3628 13.9453 14.5757 13.9453C13.2189 13.9453 12.6642 15.3013 13.3463 16.9647C13.7361 17.9288 13.5037 19.1577 12.8216 19.7086L11.5247 20.7575C10.9325 21.2554 10.1679 20.9588 9.81559 20.1218L9.73313 19.9205C9.05847 18.2572 7.94903 18.2572 7.26687 19.9205L7.18441 20.1218C6.83208 20.9588 6.06747 21.2554 5.47526 20.7575L4.17841 19.7086C3.85165 19.4427 3.61288 19.0045 3.5145 18.49C3.41612 17.9756 3.46618 17.427 3.65367 16.9647C4.33583 15.3013 3.78111 13.9453 2.42429 13.9453C1.63718 13.9453 1 13.0341 1 11.9323V11.9323Z" stroke="black" stroke-width="1.5" stroke-miterlimit="10" stroke-linecap="round" stroke-linejoin="round"/>
</svg>
