<svg width="33" height="29" viewBox="0 0 33 29" fill="none" xmlns="http://www.w3.org/2000/svg">
<path d="M12.625 12.9282C13.7128 12.9282 14.7762 12.6544 15.6806 12.1413C16.5851 11.6282 17.2901 10.899 17.7063 10.0458C18.1226 9.19262 18.2315 8.25379 18.0193 7.34805C17.8071 6.4423 17.2833 5.61032 16.5141 4.95731C15.7449 4.30431 14.7649 3.85961 13.698 3.67944C12.6311 3.49928 11.5252 3.59174 10.5202 3.94515C9.51525 4.29855 8.65627 4.89702 8.05192 5.66488C7.44757 6.43273 7.125 7.33548 7.125 8.25897C7.125 9.49733 7.70447 10.685 8.73592 11.5606C9.76737 12.4363 11.1663 12.9282 12.625 12.9282ZM12.625 5.92435C13.1689 5.92435 13.7006 6.06127 14.1528 6.3178C14.6051 6.57433 14.9575 6.93895 15.1657 7.36555C15.3738 7.79214 15.4283 8.26156 15.3222 8.71443C15.2161 9.1673 14.9541 9.58329 14.5695 9.9098C14.185 10.2363 13.695 10.4587 13.1615 10.5487C12.6281 10.6388 12.0751 10.5926 11.5726 10.4159C11.0701 10.2392 10.6406 9.93994 10.3385 9.55602C10.0363 9.17209 9.875 8.72072 9.875 8.25897C9.875 7.63979 10.1647 7.04597 10.6805 6.60814C11.1962 6.17032 11.8957 5.92435 12.625 5.92435Z" fill="#231F20"/>
<path d="M23.625 15.2629C24.4409 15.2629 25.2384 15.0575 25.9167 14.6727C26.5951 14.2879 27.1238 13.741 27.436 13.1011C27.7482 12.4612 27.8299 11.7571 27.6707 11.0778C27.5116 10.3985 27.1187 9.77448 26.5418 9.28473C25.9649 8.79497 25.2299 8.46145 24.4298 8.32632C23.6296 8.1912 22.8002 8.26055 22.0464 8.5256C21.2927 8.79066 20.6485 9.23951 20.1952 9.8154C19.7419 10.3913 19.5 11.0684 19.5 11.761C19.5 12.6897 19.9346 13.5805 20.7082 14.2372C21.4818 14.894 22.531 15.2629 23.625 15.2629ZM23.625 10.5937C23.897 10.5937 24.1628 10.6621 24.3889 10.7904C24.615 10.9187 24.7913 11.101 24.8953 11.3143C24.9994 11.5276 25.0266 11.7623 24.9736 11.9887C24.9205 12.2151 24.7896 12.4231 24.5973 12.5864C24.405 12.7496 24.16 12.8608 23.8933 12.9059C23.6265 12.9509 23.3501 12.9278 23.0988 12.8394C22.8476 12.7511 22.6328 12.6015 22.4817 12.4095C22.3306 12.2175 22.25 11.9918 22.25 11.761C22.25 11.4514 22.3949 11.1545 22.6527 10.9356C22.9106 10.7166 23.2603 10.5937 23.625 10.5937Z" fill="#231F20"/>
<path d="M23.625 16.4302C22.1013 16.4316 20.6213 16.8628 19.4175 17.6559C18.0707 16.517 16.3568 15.7422 14.492 15.4291C12.6272 15.1161 10.6949 15.2789 8.93894 15.8969C7.18294 16.5149 5.68182 17.5605 4.6249 18.9019C3.56797 20.2432 3.00258 21.8203 3 23.4341C3 23.7436 3.14487 24.0406 3.40273 24.2595C3.66059 24.4784 4.01033 24.6014 4.375 24.6014C4.73968 24.6014 5.08941 24.4784 5.34728 24.2595C5.60514 24.0406 5.75 23.7436 5.75 23.4341C5.75 21.8861 6.47433 20.4016 7.76365 19.307C9.05296 18.2124 10.8016 17.5975 12.625 17.5975C14.4484 17.5975 16.1971 18.2124 17.4864 19.307C18.7757 20.4016 19.5 21.8861 19.5 23.4341C19.5 23.7436 19.6449 24.0406 19.9027 24.2595C20.1606 24.4784 20.5103 24.6014 20.875 24.6014C21.2397 24.6014 21.5894 24.4784 21.8473 24.2595C22.1051 24.0406 22.25 23.7436 22.25 23.4341C22.2533 22.0665 21.8463 20.7207 21.0675 19.5236C21.6752 19.1159 22.4057 18.8617 23.1756 18.7901C23.9454 18.7185 24.7235 18.8323 25.4207 19.1185C26.1179 19.4047 26.7062 19.8518 27.1181 20.4085C27.53 20.9653 27.749 21.6093 27.75 22.2667C27.75 22.5763 27.8949 22.8732 28.1527 23.0922C28.4106 23.3111 28.7603 23.4341 29.125 23.4341C29.4897 23.4341 29.8394 23.3111 30.0973 23.0922C30.3551 22.8732 30.5 22.5763 30.5 22.2667C30.5 20.7188 29.7757 19.2342 28.4864 18.1397C27.1971 17.0451 25.4484 16.4302 23.625 16.4302Z" fill="#231F20"/>
</svg>
