<svg width="30" height="29" viewBox="0 0 30 29" fill="none" xmlns="http://www.w3.org/2000/svg">
<path d="M10.5 12.5307C11.6867 12.5307 12.8467 12.1632 13.8334 11.4748C14.8201 10.7863 15.5892 9.80781 16.0433 8.66297C16.4974 7.51813 16.6162 6.25838 16.3847 5.04303C16.1532 3.82767 15.5818 2.7113 14.7426 1.83507C13.9035 0.958853 12.8344 0.362138 11.6705 0.120389C10.5067 -0.12136 9.30026 0.00271465 8.2039 0.476922C7.10754 0.95113 6.17047 1.75417 5.51118 2.7845C4.85189 3.81483 4.5 5.02617 4.5 6.26533C4.5 7.927 5.13214 9.52061 6.25736 10.6956C7.38258 11.8706 8.9087 12.5307 10.5 12.5307ZM10.5 3.13267C11.0933 3.13267 11.6734 3.31639 12.1667 3.66062C12.6601 4.00484 13.0446 4.49409 13.2716 5.06651C13.4987 5.63893 13.5581 6.26881 13.4424 6.87648C13.3266 7.48416 13.0409 8.04235 12.6213 8.48046C12.2018 8.91857 11.6672 9.21693 11.0853 9.3378C10.5033 9.45868 9.90013 9.39664 9.35195 9.15954C8.80377 8.92243 8.33524 8.52091 8.00559 8.00575C7.67595 7.49058 7.5 6.88491 7.5 6.26533C7.5 5.4345 7.81607 4.63769 8.37868 4.0502C8.94129 3.46271 9.70435 3.13267 10.5 3.13267Z" fill="#231F20"/>
<path d="M22.5 15.6633C23.39 15.6633 24.26 15.3877 25.0001 14.8714C25.7401 14.3551 26.3169 13.6212 26.6575 12.7625C26.9981 11.9039 27.0872 10.9591 26.9135 10.0476C26.7399 9.13607 26.3113 8.29879 25.682 7.64163C25.0526 6.98446 24.2508 6.53692 23.3779 6.35561C22.505 6.1743 21.6002 6.26736 20.7779 6.62301C19.9557 6.97867 19.2529 7.58095 18.7584 8.35369C18.2639 9.12644 18 10.0349 18 10.9643C18 12.2106 18.4741 13.4058 19.318 14.287C20.1619 15.1682 21.3065 15.6633 22.5 15.6633ZM22.5 9.39799C22.7967 9.39799 23.0867 9.48985 23.3334 9.66196C23.58 9.83407 23.7723 10.0787 23.8858 10.3649C23.9994 10.6511 24.0291 10.9661 23.9712 11.2699C23.9133 11.5737 23.7704 11.8528 23.5607 12.0719C23.3509 12.2909 23.0836 12.4401 22.7926 12.5006C22.5017 12.561 22.2001 12.53 21.926 12.4114C21.6519 12.2929 21.4176 12.0921 21.2528 11.8345C21.088 11.5769 21 11.2741 21 10.9643C21 10.5489 21.158 10.1505 21.4393 9.85675C21.7206 9.56301 22.1022 9.39799 22.5 9.39799Z" fill="#231F20"/>
<path d="M22.5 17.2296C20.8377 17.2316 19.2232 17.8101 17.91 18.8743C16.4408 17.3461 14.5711 16.3064 12.5367 15.8864C10.5024 15.4663 8.39448 15.6847 6.47884 16.514C4.5632 17.3433 2.92562 18.7464 1.77261 20.5462C0.619604 22.3461 0.00280529 24.4622 0 26.6276C0 27.043 0.158035 27.4414 0.43934 27.7352C0.720644 28.0289 1.10218 28.194 1.5 28.194C1.89782 28.194 2.27936 28.0289 2.56066 27.7352C2.84196 27.4414 3 27.043 3 26.6276C3 24.5505 3.79018 22.5585 5.1967 21.0898C6.60322 19.6211 8.51088 18.796 10.5 18.796C12.4891 18.796 14.3968 19.6211 15.8033 21.0898C17.2098 22.5585 18 24.5505 18 26.6276C18 27.043 18.158 27.4414 18.4393 27.7352C18.7206 28.0289 19.1022 28.194 19.5 28.194C19.8978 28.194 20.2794 28.0289 20.5607 27.7352C20.842 27.4414 21 27.043 21 26.6276C21.0036 24.7926 20.5596 22.9868 19.71 21.3804C20.3729 20.8334 21.1698 20.4924 22.0097 20.3962C22.8495 20.3001 23.6983 20.4528 24.4589 20.8369C25.2196 21.2209 25.8613 21.8208 26.3106 22.5679C26.76 23.315 26.9989 24.1791 27 25.0613C27 25.4767 27.158 25.8751 27.4393 26.1689C27.7206 26.4626 28.1022 26.6276 28.5 26.6276C28.8978 26.6276 29.2794 26.4626 29.5607 26.1689C29.842 25.8751 30 25.4767 30 25.0613C30 22.9842 29.2098 20.9922 27.8033 19.5235C26.3968 18.0548 24.4891 17.2296 22.5 17.2296Z" fill="#231F20"/>
</svg>
