<svg width="15" height="20" viewBox="0 0 15 20" fill="none" xmlns="http://www.w3.org/2000/svg">
<path d="M7.50007 8.69643C8.3477 8.69643 9.1763 8.44508 9.88108 7.97416C10.5859 7.50324 11.1352 6.8339 11.4596 6.05079C11.7839 5.26768 11.8688 4.40596 11.7034 3.57462C11.5381 2.74327 11.1299 1.97963 10.5305 1.38026C9.93116 0.78089 9.16752 0.372716 8.33617 0.207351C7.50482 0.0419855 6.64311 0.126857 5.86 0.451233C5.07689 0.775608 4.40755 1.32492 3.93663 2.0297C3.46571 2.73448 3.21436 3.56308 3.21436 4.41072C3.21436 5.54736 3.66588 6.63745 4.46961 7.44117C5.27334 8.2449 6.36343 8.69643 7.50007 8.69643Z" fill="#231F20"/>
<path d="M13.9286 19.4107C14.2127 19.4107 14.4853 19.2978 14.6862 19.0969C14.8871 18.896 15 18.6234 15 18.3393C15 16.3502 14.2098 14.4425 12.8033 13.036C11.3968 11.6295 9.48912 10.8393 7.5 10.8393C5.51088 10.8393 3.60322 11.6295 2.1967 13.036C0.790176 14.4425 2.96403e-08 16.3502 0 18.3393C0 18.6234 0.112883 18.896 0.313814 19.0969C0.514746 19.2978 0.787268 19.4107 1.07143 19.4107H13.9286Z" fill="#231F20"/>
</svg>
