<svg width="30" height="29" viewBox="0 0 30 29" fill="none" xmlns="http://www.w3.org/2000/svg">
<path d="M25.2638 18.9487C24.0235 18.9498 22.8331 19.4373 21.9484 20.3065L9.47636 14.7493C9.47636 14.5598 9.47636 14.402 9.47636 14.2125C9.47636 14.0231 9.47636 13.8652 9.47636 13.6915L21.9484 8.11858C22.7296 8.88429 23.7518 9.356 24.8413 9.45358C25.9308 9.55116 27.0205 9.26859 27.9253 8.65387C28.8302 8.03916 29.4943 7.13019 29.805 6.08135C30.1156 5.03251 30.0537 3.90847 29.6296 2.90013C29.2055 1.89179 28.4455 1.06133 27.4786 0.549789C26.5117 0.0382478 25.3975 -0.122833 24.3253 0.0939063C23.2532 0.310645 22.289 0.89184 21.5967 1.73878C20.9044 2.58572 20.5267 3.64619 20.5275 4.74007V5.27684L8.05549 10.834C7.38983 10.18 6.54581 9.73725 5.62938 9.56127C4.71296 9.38529 3.76497 9.48396 2.90442 9.84488C2.04387 10.2058 1.30911 10.8129 0.792389 11.5899C0.275665 12.367 0 13.2793 0 14.2125C0 15.1457 0.275665 16.0581 0.792389 16.8351C1.30911 17.6122 2.04387 18.2192 2.90442 18.5802C3.76497 18.9411 4.71296 19.0397 5.62938 18.8638C6.54581 18.6878 7.38983 18.245 8.05549 17.591L20.5275 23.164V23.685C20.5275 24.6217 20.8053 25.5374 21.3257 26.3163C21.8462 27.0951 22.5859 27.7022 23.4513 28.0607C24.3167 28.4191 25.269 28.5129 26.1878 28.3302C27.1065 28.1474 27.9504 27.6964 28.6128 27.034C29.2752 26.3716 29.7262 25.5277 29.909 24.609C30.0917 23.6902 29.9979 22.7379 29.6395 21.8725C29.281 21.0071 28.6739 20.2674 27.8951 19.7469C27.1162 19.2265 26.2005 18.9487 25.2638 18.9487Z" fill="#231F20"/>
</svg>
