<svg width="56" height="54" viewBox="0 0 56 54" fill="none" xmlns="http://www.w3.org/2000/svg">
<path d="M39.2086 6.57846C38.8603 7.7771 38.4771 9.18727 38.4771 11.9018L48.5085 22.0551H50.668V31.9263L43.876 33.4422L39.7311 48.4957H33.2525V43.2076H17.5785V48.4957H11.0651C8.8359 40.5988 5.38762 27.2022 5.38762 22.0551C5.38762 16.2381 10.0898 11.4788 15.8369 11.4788H32.9042C34.0536 9.46931 36.1435 7.42456 39.2086 6.57846ZM41.9603 0.902527C34.4019 0.902527 30.2918 6.19066 30.2918 6.19066H15.8369C7.30333 6.19066 0.162964 13.1357 0.162964 22.0551C0.162964 30.2693 7.12918 53.7839 7.12918 53.7839H22.8032V48.4957H28.0278V53.7839H43.7018L48.0557 37.9195L55.8927 36.1568V16.7669H50.668L43.7018 9.71609C43.7018 8.44693 45.4434 6.26117 45.4434 4.42795C45.4434 2.48897 43.876 0.902527 41.9603 0.902527ZM31.5109 20.2924H17.5785V15.0042H31.5109V20.2924ZM39.3479 25.5805C37.9198 25.5805 36.7356 24.3818 36.7356 22.9364C36.7356 21.491 37.9198 20.2924 39.3479 20.2924C40.776 20.2924 41.9603 21.491 41.9603 22.9364C41.9603 24.3818 40.776 25.5805 39.3479 25.5805Z" fill="white"/>
</svg>
