<svg width="53" height="54" viewBox="0 0 53 54" fill="none" xmlns="http://www.w3.org/2000/svg">
<g clip-path="url(#clip0_1013_202)">
<path d="M39.1922 18.1864H37.0177V13.7796C37.0177 7.69829 32.147 2.7627 26.1456 2.7627C20.1442 2.7627 15.2735 7.69829 15.2735 13.7796V18.1864H13.099C10.7072 18.1864 8.75018 20.1695 8.75018 22.5932V44.6271C8.75018 47.0508 10.7072 49.0339 13.099 49.0339H39.1922C41.584 49.0339 43.541 47.0508 43.541 44.6271V22.5932C43.541 20.1695 41.584 18.1864 39.1922 18.1864ZM19.6223 13.7796C19.6223 10.122 22.5361 7.16948 26.1456 7.16948C29.7551 7.16948 32.6689 10.122 32.6689 13.7796V18.1864H19.6223V13.7796ZM39.1922 44.6271H13.099V22.5932H39.1922V44.6271ZM26.1456 38.0169C28.5375 38.0169 30.4945 36.0339 30.4945 33.6102C30.4945 31.1864 28.5375 29.2034 26.1456 29.2034C23.7537 29.2034 21.7967 31.1864 21.7967 33.6102C21.7967 36.0339 23.7537 38.0169 26.1456 38.0169Z" fill="white"/>
</g>
<defs>
<clipPath id="clip0_1013_202">
<rect width="52.1863" height="52.8814" fill="white" transform="translate(0.0524902 0.559326)"/>
</clipPath>
</defs>
</svg>
