<svg width="20" height="21" viewBox="0 0 20 21" fill="none" xmlns="http://www.w3.org/2000/svg">
<path d="M1.66669 18.8333H18.3334" stroke="black" stroke-width="1.5" stroke-miterlimit="10" stroke-linecap="round" stroke-linejoin="round"/>
<path d="M8.125 3.83332V18.8333H11.875V3.83332C11.875 2.91666 11.5 2.16666 10.375 2.16666H9.625C8.5 2.16666 8.125 2.91666 8.125 3.83332V3.83332ZM2.5 8.83332V18.8333H5.83333V8.83332C5.83333 7.91666 5.5 7.16666 4.5 7.16666H3.83333C2.83333 7.16666 2.5 7.91666 2.5 8.83332ZM14.1667 13V18.8333H17.5V13C17.5 12.0833 17.1667 11.3333 16.1667 11.3333H15.5C14.5 11.3333 14.1667 12.0833 14.1667 13V13Z" stroke="black" stroke-width="1.5" stroke-linecap="round" stroke-linejoin="round"/>
</svg>
